#!OML:ASF X:\für Bonn\!DataBase\2005_08_10_Bjorn_Final\c3d\bjorn.ASF
:FULLY-SPECIFIED
:DEGREES
32
root 0.379818 19.5145 5.2146 -165.284 2.98547 176.236
lowerback 3.81651 -0.581283 0.172131
upperback 14.6656 1.61915 0.863579
thorax 13.8058 1.68602 1.21795
lowerneck -12.9658 10.9128 2.25221
upperneck -15.8199 11.1343 -15.9682
head -1.49925 4.63453 -4.84451
rclavicle -5.56597e-015 8.74653e-015
rhumerus -1389.24 2.00594 1356.16
rradius 11.2381
rwrist 45.2308
rhand -21.8629 7.01662
rfingers 7.12502
rthumb 4.54112 -22.9147
lclavicle -5.56597e-015 8.74653e-015
lhumerus -1554.83 168.391 -1495.45
lradius 4.94436
lwrist -97.0915
lhand -25.7264 1.83094
lfingers 7.12502
lthumb 0.809955 31.8091
rfemur -32.4454 -9.09817 13.0589
rtibia 27.8414
rfoot -8.21154 6.32868
rtoes -16.8491
lfemur -29.6126 15.874 -25.9368
ltibia 25.6389
lfoot -4.77355 -10.0607
ltoes 2.17536
33
root 0.384838 19.5099 5.18843 -165.645 2.83773 176.27
lowerback 3.69175 -0.578777 0.15721
upperback 14.5069 1.56324 0.869435
thorax 13.6864 1.63777 1.22055
lowerneck -13.1125 10.8677 2.42716
upperneck -15.0261 11.2624 -15.7501
head -1.23526 4.70505 -4.76769
rclavicle 4.77083e-015 1.27222e-014
rhumerus -1387.96 4.73031 1360.3
rradius 11.8996
rwrist 43.3397
rhand -20.7969 7.05616
rfingers 7.12502
rthumb 5.57041 -22.8506
lclavicle 4.77083e-015 1.27222e-014
lhumerus -1554.41 170.258 -1498.19
lradius 4.78997
lwrist -96.2934
lhand -25.2697 1.74131
lfingers 7.12502
lthumb 1.25112 31.7174
rfemur -31.9785 -8.92368 12.989
rtibia 28.0029
rfoot -8.50391 6.11065
rtoes -16.7941
lfemur -29.0828 15.3604 -25.5837
ltibia 25.7519
lfoot -4.99848 -9.62379
ltoes 2.20874
34
root 0.389885 19.5049 5.15652 -166.017 2.70694 176.324
lowerback 3.52018 -0.558101 0.140192
upperback 14.3341 1.52321 0.900292
thorax 13.5785 1.59229 1.25359
lowerneck -13.1873 10.7708 2.59727
upperneck -14.2257 11.3225 -15.4883
head -0.990214 4.748 -4.6843
rclavicle -2.94201e-014 -3.49861e-014
rhumerus -1386.56 7.67415 1365.33
rradius 12.69
rwrist 40.1289
rhand -20.1298 7.12321
rfingers 7.12502
rthumb 6.2145 -22.7656
lclavicle -2.94201e-014 -3.49861e-014
lhumerus -1553.92 172.042 -1500.94
lradius 4.61593
lwrist -94.6222
lhand -24.8075 1.50172
lfingers 7.12502
lthumb 1.69745 31.4747
rfemur -31.4988 -8.8116 12.9561
rtibia 28.1834
rfoot -8.79728 5.99232
rtoes -16.9461
lfemur -28.5194 14.848 -25.2127
ltibia 25.873
lfoot -5.29525 -9.21659
ltoes 2.12141
35
root 0.395981 19.4992 5.11846 -166.44 2.62257 176.389
lowerback 3.37952 -0.502909 0.148747
upperback 14.106 1.51612 0.901714
thorax 13.3844 1.56305 1.23768
lowerneck -13.1565 10.6128 2.84137
upperneck -13.3264 11.3228 -15.1578
head -0.737634 4.77121 -4.59731
rclavicle -2.3059e-014 -4.21423e-014
rhumerus -1385.12 10.2794 1370.37
rradius 13.565
rwrist 37.093
rhand -19.3562 7.0504
rfingers 7.12502
rthumb 6.96133 -22.8151
lclavicle -2.3059e-014 -4.21423e-014
lhumerus -1553.47 173.738 -1503.77
lradius 4.68264
lwrist -93.2298
lhand -24.5319 1.56311
lfingers 7.12502
lthumb 1.96363 31.5338
rfemur -30.9542 -8.68676 12.9307
rtibia 28.3709
rfoot -9.09924 5.9193
rtoes -16.9151
lfemur -27.8773 14.3537 -24.8258
ltibia 26.0065
lfoot -5.617 -8.74
ltoes 1.99815
36
root 0.401267 19.4934 5.07557 -166.899 2.53252 176.476
lowerback 3.27674 -0.428079 0.212186
upperback 13.7967 1.51241 0.893558
thorax 13.0697 1.53536 1.17438
lowerneck -12.9318 10.384 3.12163
upperneck -12.3613 11.251 -14.7481
head -0.50508 4.77634 -4.50336
rclavicle -4.77083e-015 -3.18055e-015
rhumerus -1383.8 12.3654 1374.93
rradius 14.4319
rwrist 34.7482
rhand -18.5554 6.46594
rfingers 7.12502
rthumb 7.73425 -23.3726
lclavicle -4.77083e-015 -3.18055e-015
lhumerus -1553.16 175.268 -1506.72
lradius 4.89516
lwrist -91.6294
lhand -24.2355 1.59868
lfingers 7.12502
lthumb 2.24994 31.5666
rfemur -30.3766 -8.67621 12.9534
rtibia 28.5716
rfoot -9.3715 5.9637
rtoes -16.9979
lfemur -27.1806 13.8322 -24.4049
ltibia 26.1352
lfoot -5.95451 -8.285
ltoes 1.91591
37
root 0.407204 19.4857 5.02873 -167.429 2.45983 176.564
lowerback 3.22959 -0.343263 0.284869
upperback 13.4467 1.51663 0.866814
thorax 12.6748 1.51124 1.0825
lowerneck -12.6149 10.0982 3.44391
upperneck -11.2803 11.1245 -14.256
head -0.260908 4.76361 -4.39613
rclavicle 1.59028e-015 5.56597e-015
rhumerus -1382.57 13.9389 1378.91
rradius 15.2873
rwrist 33.4114
rhand -17.4925 5.89349
rfingers 7.12502
rthumb 8.76011 -23.9047
lclavicle 1.59028e-015 5.56597e-015
lhumerus -1552.94 176.699 -1509.73
lradius 5.17585
lwrist -89.5537
lhand -23.8782 1.53425
lfingers 7.12502
lthumb 2.59497 31.4982
rfemur -29.7052 -8.64136 12.9609
rtibia 28.7829
rfoot -9.68671 6.02024
rtoes -16.9762
lfemur -26.3971 13.4079 -23.9998
ltibia 26.2617
lfoot -6.31844 -7.91678
ltoes 1.54504
38
root 0.414227 19.4784 4.97554 -167.995 2.39957 176.601
lowerback 3.15568 -0.26596 0.251013
upperback 13.0625 1.50355 0.86016
thorax 12.2573 1.46134 1.06997
lowerneck -12.1807 9.7665 3.61265
upperneck -10.085 10.9923 -13.3055
head -0.107151 4.75442 -4.55501
rclavicle -6.36111e-015 -1.59028e-014
rhumerus -1381.45 15.2081 1382.55
rradius 16.1642
rwrist 33.3619
rhand -16.2452 5.25173
rfingers 7.12502
rthumb 9.96356 -24.4925
lclavicle -6.36111e-015 -1.59028e-014
lhumerus -1552.79 177.968 -1512.74
lradius 5.63584
lwrist -87.3161
lhand -23.4814 1.43536
lfingers 7.12502
lthumb 2.97824 31.3943
rfemur -28.9759 -8.50839 12.8875
rtibia 29.0065
rfoot -10.0462 5.99774
rtoes -17.092
lfemur -25.5606 12.9688 -23.6432
ltibia 26.3806
lfoot -6.6855 -7.52617
ltoes 1.28175
39
root 0.422711 19.4689 4.91592 -168.61 2.38667 176.656
lowerback 3.02823 -0.154798 0.255802
upperback 12.6782 1.53935 0.817221
thorax 11.8776 1.44147 1.00308
lowerneck -11.6522 9.37214 3.78422
upperneck -9.0189 10.7257 -12.5879
head 0.0948594 4.69594 -4.34419
rclavicle 1.90833e-014 1.43125e-014
rhumerus -1380.38 16.1683 1385.93
rradius 17.0156
rwrist 33.3679
rhand -14.8821 4.84935
rfingers 7.12502
rthumb 11.2784 -24.8274
lclavicle 1.90833e-014 1.43125e-014
lhumerus -1552.65 179.268 -1515.83
lradius 6.1641
lwrist -84.9122
lhand -23.1226 1.37279
lfingers 7.12502
lthumb 3.3247 31.3266
rfemur -28.1855 -8.28732 12.8171
rtibia 29.244
rfoot -10.442 5.94608
rtoes -17.0313
lfemur -24.6441 12.6301 -23.2761
ltibia 26.4927
lfoot -7.05939 -7.19639
ltoes 1.11008
40
root 0.430964 19.4593 4.85477 -169.242 2.33338 176.729
lowerback 2.81631 -0.0755107 0.23752
upperback 12.3386 1.54077 0.823556
thorax 11.6041 1.40265 1.00619
lowerneck -11.1199 8.95216 3.84582
upperneck -7.96399 10.4139 -11.8467
head 0.2795 4.61336 -4.11149
rclavicle 3.97569e-015 3.18055e-015
rhumerus -1379.28 16.8895 1389.12
rradius 17.8532
rwrist 33.3931
rhand -13.6377 4.66365
rfingers 7.12502
rthumb 12.4784 -24.9438
lclavicle 3.97569e-015 3.18055e-015
lhumerus -1552.3 180.463 -1518.93
lradius 6.70488
lwrist -82.5416
lhand -22.9087 1.19839
lfingers 7.12502
lthumb 3.53131 31.1489
rfemur -27.3648 -8.17541 12.7926
rtibia 29.4773
rfoot -10.8474 5.97757
rtoes -17.1659
lfemur -23.7028 12.1905 -22.8698
ltibia 26.6161
lfoot -7.4514 -6.80874
ltoes 0.956146
41
root 0.439201 19.4474 4.78941 -169.924 2.30605 176.815
lowerback 2.45933 -0.0117064 0.234179
upperback 12.1059 1.54653 0.811811
thorax 11.5472 1.37618 0.993109
lowerneck -10.7466 8.50213 3.93522
upperneck -6.7341 10.0587 -11.0697
head 0.545022 4.49964 -3.86762
rclavicle 9.14409e-015 1.66979e-014
rhumerus -1378.31 17.1096 1391.56
rradius 18.6171
rwrist 34.0364
rhand -12.6796 4.69
rfingers 7.12502
rthumb 13.402 -24.8589
lclavicle 9.14409e-015 1.66979e-014
lhumerus -1551.75 181.62 -1522.11
lradius 7.22852
lwrist -80.1754
lhand -22.7016 1.05164
lfingers 7.12502
lthumb 3.73125 30.9987
rfemur -26.4758 -8.06595 12.7722
rtibia 29.7173
rfoot -11.2439 6.04695
rtoes -17.0484
lfemur -22.6981 11.8091 -22.4707
ltibia 26.7388
lfoot -7.86302 -6.46303
ltoes 0.75251
42
root 0.447194 19.4337 4.71867 -170.655 2.28405 176.927
lowerback 2.03788 0.0339436 0.241959
upperback 11.9129 1.53406 0.824611
thorax 11.5766 1.34311 1.00336
lowerneck -10.4354 8.03774 3.96127
upperneck -5.30944 9.69276 -10.2616
head 0.879386 4.37901 -3.60082
rclavicle -2.62396e-014 -2.54444e-014
rhumerus -1377.3 17.3065 1394.22
rradius 19.3745
rwrist 34.238
rhand -12.0506 4.67892
rfingers 7.12502
rthumb 14.0083 -24.8291
lclavicle -2.62396e-014 -2.54444e-014
lhumerus -1551.13 182.631 -1525.34
lradius 7.8145
lwrist -77.835
lhand -22.425 0.903122
lfingers 7.12502
lthumb 3.99834 30.8454
rfemur -25.523 -8.04429 12.7887
rtibia 29.9462
rfoot -11.6366 6.22445
rtoes -16.9904
lfemur -21.6186 11.3787 -22.0377
ltibia 26.8712
lfoot -8.33033 -6.10096
ltoes 0.545686
